<?xml version="1.0" encoding="UTF-8"?>
<svg xmlns="http://www.w3.org/2000/svg"
     viewBox="0 0 1100 720"
     width="170mm" height="111mm"
     font-family="Helvetica, Arial, sans-serif">
  <title>Figure 3. Gap matrix</title>
  <desc>Eight gaps from gap-analysis.md (rows) versus four prior-effort axes (columns). Filled cells indicate coverage, with a representative card slug. Empty cells in the last column define the gaps addressed by per-shot developmental EEG of silent character animation.</desc>

  <rect width="1100" height="720" fill="#ffffff"/>

  <text x="40" y="32" font-size="22" font-weight="600" fill="#000000">Figure 3. Gap matrix: corpus coverage by gap and prior-effort axis</text>
  <text x="40" y="52" font-size="15" fill="#444444">Eight named gaps (rows) versus four prior-effort axes (columns). Filled cells carry a representative card slug; empty cells highlight the gaps that the per-shot developmental EEG-ERSP framing addresses.</text>

  <!-- Header row -->
  <g transform="translate(40,80)">
    <rect x="280" y="0" width="180" height="36" fill="#0072B2"/>
    <text x="370" y="22" font-size="16" font-weight="600" fill="#ffffff" text-anchor="middle">cinematic fMRI</text>

    <rect x="460" y="0" width="180" height="36" fill="#0072B2" fill-opacity="0.78"/>
    <text x="550" y="22" font-size="16" font-weight="600" fill="#ffffff" text-anchor="middle">naturalistic scalp EEG</text>

    <rect x="640" y="0" width="180" height="36" fill="#0072B2" fill-opacity="0.92"/>
    <text x="730" y="22" font-size="16" font-weight="600" fill="#ffffff" text-anchor="middle">intracranial / MEG</text>

    <rect x="820" y="0" width="180" height="36" fill="#0072B2" fill-opacity="0.86"/>
    <text x="910" y="22" font-size="16" font-weight="600" fill="#ffffff" text-anchor="middle">behavioural / eye-tracking</text>
  </g>

  <!-- Data rows -->
  <g transform="translate(40,116)" font-size="14">

    <!-- Gap 1 -->
    <rect x="0" y="0" width="280" height="62" fill="#fafafa" stroke="#dddddd" stroke-width="0.5"/>
    <text x="10" y="22" font-size="15" font-weight="600">Gap 1</text>
    <text x="10" y="38" font-size="14">Child-cohort EEG ERSP at</text>
    <text x="10" y="50" font-size="14">shot onsets in animation</text>

    <rect x="280" y="0" width="180" height="62" fill="#e7f0fa" stroke="#cccccc" stroke-width="0.5"/>
    <text x="370" y="34" text-anchor="middle">richardson-saxe-2018</text>
    <text x="370" y="46" text-anchor="middle">vanderwal-2015-inscapes</text>

    <rect x="460" y="0" width="180" height="62" fill="#fef0e7" stroke="#cccccc" stroke-width="0.5"/>
    <text x="550" y="28" text-anchor="middle">petroni-cohen-2018</text>
    <text x="550" y="40" text-anchor="middle">(whole-clip ISC,</text>
    <text x="550" y="52" text-anchor="middle">not per-shot ERSP)</text>

    <rect x="640" y="0" width="180" height="62" fill="#e8f4ee" stroke="#cccccc" stroke-width="0.5"/>
    <text x="730" y="34" text-anchor="middle">nentwich-2023</text>
    <text x="730" y="46" text-anchor="middle">(adult iEEG)</text>

    <rect x="820" y="0" width="180" height="62" fill="#ffffff" stroke="#D55E00" stroke-width="1.4" stroke-dasharray="4 3"/>
    <text x="910" y="34" text-anchor="middle" font-weight="600" fill="#D55E00">no coverage</text>

    <!-- Gap 2 -->
    <rect x="0" y="62" width="280" height="62" fill="#fafafa" stroke="#dddddd" stroke-width="0.5"/>
    <text x="10" y="84" font-size="15" font-weight="600">Gap 2</text>
    <text x="10" y="100" font-size="14">LLR as continuous regressor</text>
    <text x="10" y="112" font-size="14">in EEG ERSP</text>

    <rect x="280" y="62" width="180" height="62" fill="#e7f0fa" stroke="#cccccc" stroke-width="0.5"/>
    <text x="370" y="90" text-anchor="middle">kauttonen-2015</text>
    <text x="370" y="102" text-anchor="middle">(multi-feature fMRI)</text>

    <rect x="460" y="62" width="180" height="62" fill="#fef0e7" stroke="#cccccc" stroke-width="0.5"/>
    <text x="550" y="90" text-anchor="middle">kaneshiro-2021</text>
    <text x="550" y="102" text-anchor="middle">(envelope-only audio)</text>

    <rect x="640" y="62" width="180" height="62" fill="#e8f4ee" stroke="#cccccc" stroke-width="0.5"/>
    <text x="730" y="90" text-anchor="middle">nentwich-2023</text>
    <text x="730" y="102" text-anchor="middle">(motion outranks luminance)</text>

    <rect x="820" y="62" width="180" height="62" fill="#ffffff" stroke="#D55E00" stroke-width="1.4" stroke-dasharray="4 3"/>
    <text x="910" y="96" text-anchor="middle" font-weight="600" fill="#D55E00">no coverage</text>

    <!-- Gap 3 -->
    <rect x="0" y="124" width="280" height="62" fill="#fafafa" stroke="#dddddd" stroke-width="0.5"/>
    <text x="10" y="146" font-size="15" font-weight="600">Gap 3</text>
    <text x="10" y="162" font-size="14">Pet- or animal-evoked</text>
    <text x="10" y="174" font-size="14">affective EEG in children</text>

    <rect x="280" y="124" width="180" height="62" fill="#e7f0fa" stroke="#cccccc" stroke-width="0.5"/>
    <text x="370" y="152" text-anchor="middle">stoeckel-2014</text>
    <text x="370" y="164" text-anchor="middle">glocker-2009</text>

    <rect x="460" y="124" width="180" height="62" fill="#ffffff" stroke="#D55E00" stroke-width="1.4" stroke-dasharray="4 3"/>
    <text x="550" y="158" text-anchor="middle" font-weight="600" fill="#D55E00">no coverage</text>

    <rect x="640" y="124" width="180" height="62" fill="#ffffff" stroke="#D55E00" stroke-width="1.4" stroke-dasharray="4 3"/>
    <text x="730" y="158" text-anchor="middle" font-weight="600" fill="#D55E00">no coverage</text>

    <rect x="820" y="124" width="180" height="62" fill="#f4ecf2" stroke="#cccccc" stroke-width="0.5"/>
    <text x="910" y="152" text-anchor="middle">borgi-2014</text>
    <text x="910" y="164" text-anchor="middle">(3-6 yr cuteness)</text>

    <!-- Gap 4 -->
    <rect x="0" y="186" width="280" height="62" fill="#fafafa" stroke="#dddddd" stroke-width="0.5"/>
    <text x="10" y="208" font-size="15" font-weight="600">Gap 4</text>
    <text x="10" y="224" font-size="14">Silent-narrative ERSP at</text>
    <text x="10" y="236" font-size="14">0-500 ms event boundaries</text>

    <rect x="280" y="186" width="180" height="62" fill="#e7f0fa" stroke="#cccccc" stroke-width="0.5"/>
    <text x="370" y="214" text-anchor="middle">castelli-2000</text>
    <text x="370" y="226" text-anchor="middle">naci-2014, vanderwal-2015</text>

    <rect x="460" y="186" width="180" height="62" fill="#ffffff" stroke="#D55E00" stroke-width="1.4" stroke-dasharray="4 3"/>
    <text x="550" y="220" text-anchor="middle" font-weight="600" fill="#D55E00">no coverage</text>

    <rect x="640" y="186" width="180" height="62" fill="#e8f4ee" stroke="#cccccc" stroke-width="0.5"/>
    <text x="730" y="214" text-anchor="middle">lankinen-2014</text>
    <text x="730" y="226" text-anchor="middle">(silent-visual MEG, N=8)</text>

    <rect x="820" y="186" width="180" height="62" fill="#f4ecf2" stroke="#cccccc" stroke-width="0.5"/>
    <text x="910" y="220" text-anchor="middle">magliano-2011</text>

    <!-- Gap 5 -->
    <rect x="0" y="248" width="280" height="62" fill="#fafafa" stroke="#dddddd" stroke-width="0.5"/>
    <text x="10" y="270" font-size="15" font-weight="600">Gap 5</text>
    <text x="10" y="286" font-size="14">Cross-strand multi-regressor</text>
    <text x="10" y="298" font-size="14">per-shot ERSP model</text>

    <rect x="280" y="248" width="180" height="62" fill="#e7f0fa" stroke="#cccccc" stroke-width="0.5"/>
    <text x="370" y="282" text-anchor="middle">kauttonen-2015</text>

    <rect x="460" y="248" width="180" height="62" fill="#fef0e7" stroke="#cccccc" stroke-width="0.5"/>
    <text x="550" y="276" text-anchor="middle">madsen-parra-2022</text>
    <text x="550" y="288" text-anchor="middle">dmochowski-2012</text>

    <rect x="640" y="248" width="180" height="62" fill="#e8f4ee" stroke="#cccccc" stroke-width="0.5"/>
    <text x="730" y="282" text-anchor="middle">nentwich-2023</text>

    <rect x="820" y="248" width="180" height="62" fill="#ffffff" stroke="#D55E00" stroke-width="1.4" stroke-dasharray="4 3"/>
    <text x="910" y="282" text-anchor="middle" font-weight="600" fill="#D55E00">no coverage</text>

    <!-- Gap 6 -->
    <rect x="0" y="310" width="280" height="62" fill="#fafafa" stroke="#dddddd" stroke-width="0.5"/>
    <text x="10" y="332" font-size="15" font-weight="600">Gap 6</text>
    <text x="10" y="348" font-size="14">Free-viewing EEG without</text>
    <text x="10" y="360" font-size="14">synchronous eye tracker</text>

    <rect x="280" y="310" width="180" height="62" fill="#ffffff" stroke="#D55E00" stroke-width="1.4" stroke-dasharray="4 3"/>
    <text x="370" y="344" text-anchor="middle" font-weight="600" fill="#D55E00">no coverage</text>

    <rect x="460" y="310" width="180" height="62" fill="#fef0e7" stroke="#cccccc" stroke-width="0.5"/>
    <text x="550" y="338" text-anchor="middle">dimigen-2011</text>
    <text x="550" y="350" text-anchor="middle">ploechl-2012 (with tracker)</text>

    <rect x="640" y="310" width="180" height="62" fill="#ffffff" stroke="#D55E00" stroke-width="1.4" stroke-dasharray="4 3"/>
    <text x="730" y="344" text-anchor="middle" font-weight="600" fill="#D55E00">no coverage</text>

    <rect x="820" y="310" width="180" height="62" fill="#f4ecf2" stroke="#cccccc" stroke-width="0.5"/>
    <text x="910" y="338" text-anchor="middle">dorr-2010</text>
    <text x="910" y="350" text-anchor="middle">klin-2002, klin-2009</text>

    <!-- Gap 7 -->
    <rect x="0" y="372" width="280" height="62" fill="#fafafa" stroke="#dddddd" stroke-width="0.5"/>
    <text x="10" y="394" font-size="15" font-weight="600">Gap 7</text>
    <text x="10" y="410" font-size="14">Mu-band action-observation</text>
    <text x="10" y="422" font-size="14">EEG to animated agents</text>

    <rect x="280" y="372" width="180" height="62" fill="#e7f0fa" stroke="#cccccc" stroke-width="0.5"/>
    <text x="370" y="400" text-anchor="middle">rizzolatti-2004</text>
    <text x="370" y="412" text-anchor="middle">iacoboni-2009</text>

    <rect x="460" y="372" width="180" height="62" fill="#fef0e7" stroke="#cccccc" stroke-width="0.5"/>
    <text x="550" y="400" text-anchor="middle">hari-1998, pineda-2005</text>
    <text x="550" y="412" text-anchor="middle">oberman-2007 (adult hand)</text>

    <rect x="640" y="372" width="180" height="62" fill="#ffffff" stroke="#D55E00" stroke-width="1.4" stroke-dasharray="4 3"/>
    <text x="730" y="406" text-anchor="middle" font-weight="600" fill="#D55E00">no coverage</text>

    <rect x="820" y="372" width="180" height="62" fill="#ffffff" stroke="#D55E00" stroke-width="1.4" stroke-dasharray="4 3"/>
    <text x="910" y="406" text-anchor="middle" font-weight="600" fill="#D55E00">no coverage</text>

    <!-- Gap 8 -->
    <rect x="0" y="434" width="280" height="62" fill="#fafafa" stroke="#dddddd" stroke-width="0.5"/>
    <text x="10" y="456" font-size="15" font-weight="600">Gap 8</text>
    <text x="10" y="472" font-size="14">Frontal alpha asymmetry at</text>
    <text x="10" y="484" font-size="14">sub-second naturalistic scale</text>

    <rect x="280" y="434" width="180" height="62" fill="#ffffff" stroke="#D55E00" stroke-width="1.4" stroke-dasharray="4 3"/>
    <text x="370" y="468" text-anchor="middle" font-weight="600" fill="#D55E00">no coverage</text>

    <rect x="460" y="434" width="180" height="62" fill="#fef0e7" stroke="#cccccc" stroke-width="0.5"/>
    <text x="550" y="462" text-anchor="middle">davidson-2000, coan-2004</text>
    <text x="550" y="474" text-anchor="middle">codispoti-2023 (seconds scale)</text>

    <rect x="640" y="434" width="180" height="62" fill="#ffffff" stroke="#D55E00" stroke-width="1.4" stroke-dasharray="4 3"/>
    <text x="730" y="468" text-anchor="middle" font-weight="600" fill="#D55E00">no coverage</text>

    <rect x="820" y="434" width="180" height="62" fill="#ffffff" stroke="#D55E00" stroke-width="1.4" stroke-dasharray="4 3"/>
    <text x="910" y="468" text-anchor="middle" font-weight="600" fill="#D55E00">no coverage</text>
  </g>

  <!-- Legend -->
  <g transform="translate(40,650)">
    <rect x="0" y="-12" width="14" height="14" fill="#e7f0fa" stroke="#cccccc" stroke-width="0.5"/>
    <text x="20" y="0" font-size="15" fill="#000000">cinematic fMRI</text>

    <rect x="135" y="-12" width="14" height="14" fill="#fef0e7" stroke="#cccccc" stroke-width="0.5"/>
    <text x="155" y="0" font-size="15" fill="#000000">naturalistic scalp EEG</text>

    <rect x="305" y="-12" width="14" height="14" fill="#e8f4ee" stroke="#cccccc" stroke-width="0.5"/>
    <text x="325" y="0" font-size="15" fill="#000000">intracranial / MEG</text>

    <rect x="460" y="-12" width="14" height="14" fill="#f4ecf2" stroke="#cccccc" stroke-width="0.5"/>
    <text x="480" y="0" font-size="15" fill="#000000">behavioural / eye-tracking</text>

    <rect x="640" y="-12" width="14" height="14" fill="#ffffff" stroke="#D55E00" stroke-width="1.4" stroke-dasharray="4 3"/>
    <text x="660" y="0" font-size="15" font-weight="600" fill="#D55E00">no coverage</text>
  </g>

  <text x="40" y="700" font-size="14" fill="#666666">Source: research/synthesis/gap-analysis.md three-column coverage table. Cards listed are representative, not exhaustive.</text>
</svg>
